# AST/ASF file generated using VICON BodyLanguage
# -----------------------------------------------
:version 1.10
:name VICON
:units
  mass 1.0
  length 0.45
  angle deg
:documentation
   .ast/.asf automatically generated from VICON data using
   VICON BodyBuilder and BodyLanguage model FoxedUp or BRILLIANT.MOD
:root
   order TX TY TZ RX RY RZ
   axis XYZ
   position 0 0 0  
   orientation 0 0 0 
:bonedata
  begin
     id 1 
     name lhipjoint
     direction 0.63403 -0.759788 0.143974 
     length 2.51904 
     axis 0 0 0  XYZ
  end
  begin
     id 2 
     name lfemur
     direction 0.34202 -0.939693 0  
     length 7.42313  
     axis 0 0 20  XYZ
    dof rx ry rz
    limits (-160.0 20.0)
           (-70.0 70.0)
           (-60.0 70.0)
  end
  begin
     id 3 
     name ltibia
     direction 0.34202 -0.939693 0   
     length 8.10141   
     axis 0 0 20   XYZ
    dof rx
    limits (-10.0 170.0)
  end
  begin
     id 4 
     name lfoot
     direction 0.0927455 -0.254816 0.962532   
     length 2.14078   
     axis -90 7.62852e-016 20   XYZ
    dof rx rz
    limits (-45.0 90.0)
           (-70.0 20.0)
  end
  begin
     id 5 
     name ltoes
     direction 1.53556e-011 -4.21949e-011 1   
     length 1.07182   
     axis -90 7.62852e-016 20   XYZ
    dof rx
    limits (-90.0 20.0)
  end
  begin
     id 6 
     name rhipjoint
     direction -0.659892 -0.738223 0.139888   
     length 2.59263  
     axis 0 0 0  XYZ 
  end
  begin
     id 7 
     name rfemur
     direction -0.34202 -0.939693 0   
     length 7.58575   
     axis 0 0 -20   XYZ
    dof rx ry rz
    limits (-160.0 20.0)
           (-70.0 70.0)
           (-70.0 60.0)
  end
  begin
     id 8 
     name rtibia
     direction -0.34202 -0.939693 0   
     length 8.19358   
     axis 0 0 -20   XYZ
    dof rx
    limits (-10.0 170.0)
 end
 begin
     id 9 
     name rfoot
     direction -0.0856543 -0.235333 0.968133   
     length 2.13415  
     axis -90 -7.62852e-016 -20   XYZ
    dof rx rz
    limits (-45.0 90.0)
           (-20.0 70.0)
  end
  begin
     id 10 
     name rtoes
     direction -1.53551e-011 -4.21811e-011 1   
     length 1.07055   
     axis -90 -7.62852e-016 -20   XYZ
    dof rx
    limits (-90.0 20.0)
  end
  begin
     id 11 
     name lowerback
     direction 0.025219 0.998394 -0.0507326   
     length 1.91844   
     axis 0 0 0   XYZ
    dof rx ry rz
    limits (-20.0 45.0)
           (-30.0 30.0)
           (-30.0 30.0)
  end
  begin
     id 12 
     name upperback
     direction 0.0213103 0.99967 -0.0143101   
     length 1.92246   
     axis 0 0 0   XYZ
    dof rx ry rz
    limits (-20.0 45.0)
           (-30.0 30.0)
           (-30.0 30.0)
  end
  begin
     id 13 
     name thorax
     direction 0.00920974 0.99991 0.00971518   
     length 1.92239   
     axis 0 0 0   XYZ
    dof rx ry rz
    limits (-20.0 45.0)
           (-30.0 30.0)
           (-30.0 30.0)
  end
  begin
     id 14 
     name lowerneck
     direction 0.0598257 0.997249 0.0437612   
     length 3.13679   
     axis 0 0 0   XYZ
    dof rx ry rz
    limits (-20.0 45.0)
           (-30.0 30.0)
           (-30.0 30.0)
  end
  begin
     id 15 
     name upperneck
     direction -0.035342 0.999338 0.00863891   
     length 3.16283   
     axis 0 0 0   XYZ
    dof rx ry rz
    limits (-20.0 45.0)
           (-30.0 30.0)
           (-30.0 30.0)
  end
  begin
     id 16
     name head
     direction 0.37144 0.811566 0.450991  
     length 1.2838  
     axis 0 0 0   XYZ
    dof rx ry rz
    limits (-20.0 45.0)
           (-30.0 30.0)
           (-30.0 30.0)
  end
  begin
     id 17 
     name lclavicle
     direction 0.961094 0.274654 -0.0293862  
     length 3.63466  
     axis 0 0 0   XYZ
    dof ry rz
    limits (-20.0 10.0)
           (0.0 20.0)
  end
  begin
     id 18 
     name lhumerus
     direction 1 -4.48963e-011 1.10303e-027   
     length 5.12842   
     axis 180 -30 -90   XYZ
    dof rx ry rz
    limits (-60.0 90.0)
           (-90.0 90.0)
           (-90.0 90.0)
  end
  begin
     id 19
     name lradius
     direction 1 -4.48968e-011 4.13199e-027   
     length 3.47396   
     axis 180 -30 -90   XYZ
    dof rx
    limits (-10.0 170.0)
  end
  begin
     id 20
     name lwrist
     direction 1 -4.48948e-011 9.12708e-027   
     length 1.73698   
     axis -6.84618e-015 90 90   XYZ
    dof ry
    limits (-180.0 0.0)
 end
  begin
     id 21 
     name lhand
     direction 1 -4.49057e-011 1.82749e-026   
     length 0.728607   
     axis -1.16502e-014 90 90   XYZ
    dof rx rz
    limits (-90.0 90.0)
           (-45.0 45.0)
  end
  begin
     id 22 
     name lfingers
     direction 1 -4.48912e-011 3.64949e-026   
     length 0.587422   
     axis -2.33008e-014 90 90   XYZ
    dof rx
    limits (0.0 90.0)
  end
  begin
     id 23
     name lthumb
     direction 0.707107 -6.34995e-011 0.707107   
     length 0.843424   
     axis -90 45 5.69224e-014   XYZ
    dof rx rz
    limits (-45.0 45.0)
           (-45.0 45.0)
  end
  begin
     id 24 
     name rclavicle
     direction -0.90514 0.421881 -0.0523369   
     length 3.57139  
     axis 0 0 0   XYZ 
    dof ry rz
    limits (-10.0 20.0)
           (-20.0 0.0)
  end
  begin
     id 25 
     name rhumerus
     direction -1 -4.48954e-011 -1.76662e-027  
     length 5.48477   
     axis 180 30 90   XYZ
    dof rx ry rz
    limits (-90.0 60.0)
           (-90.0 90.0)
           (-90.0 90.0)
  end
  begin
     id 26 
     name rradius
     direction -1 -4.48982e-011 1.26841e-027   
     length 3.47856   
     axis 180 30 90   XYZ
    dof rx
    limits (-10.0 170.0)
  end
  begin
     id 27 
     name rwrist
     direction -1 -4.49037e-011 9.13554e-027   
     length 1.73928   
     axis -6.84618e-015 -90 -90   XYZ
    dof ry
    limits (-180.0 0.0)
  end
  begin
     id 28
     name rhand
     direction -1 -4.48871e-011 1.82397e-026   
     length 0.709974   
     axis -1.16502e-014 -90 -90   XYZ
    dof rx rz
    limits (-90.0 90.0)
           (-45.0 45.0)
  end
  begin
     id 29
     name rfingers
     direction -1 -4.48994e-011 3.65258e-026   
     length 0.572399   
     axis -2.33008e-014 -90 -90   XYZ
    dof rx
    limits (0.0 90.0)
  end
  begin
     id 30
     name rthumb
     direction -0.707107 -6.34861e-011 0.707107   
     length 0.821855   
     axis -90 -45 -5.69224e-014   XYZ
    dof rx rz
    limits (-45.0 45.0)
           (-45.0 45.0)
  end
:hierarchy
  begin
    root lhipjoint rhipjoint lowerback
    lhipjoint lfemur
    lfemur ltibia
    ltibia lfoot
    lfoot ltoes
    rhipjoint rfemur
    rfemur rtibia
    rtibia rfoot
    rfoot rtoes
    lowerback upperback
    upperback thorax
    thorax lowerneck lclavicle rclavicle
    lowerneck upperneck
    upperneck head
    lclavicle lhumerus
    lhumerus lradius
    lradius lwrist
    lwrist lhand lthumb
    lhand lfingers
    rclavicle rhumerus
    rhumerus rradius
    rradius rwrist
    rwrist rhand rthumb
    rhand rfingers
  end

#!OML:ASF F:\VICON\USERDATA\INSTALL\Justin1\Justin1.ASF
:FULLY-SPECIFIED
:DEGREES
1379
root 0.0234776 18.172 -4.29259 2.33355 2.4406 -2.92893
lowerback 3.43117 -0.593112 3.20012
upperback -0.508415 -0.562237 3.73068
thorax -2.44312 -0.298249 2.07693
lowerneck -15.73 -1.87772 -3.35777
upperneck 14.2921 -1.01342 -4.34739
head 6.97094 -1.06921 -0.972018
rclavicle -1.12313e-014 2.54444e-014
rhumerus -31.5717 -9.38738 -78.9042
rradius 29.4608
rwrist -1.07277
rhand -22.3282 13.179
rfingers 7.12502
rthumb 4.09182 -16.7615
lclavicle -1.12313e-014 2.54444e-014
lhumerus -35.051 10.1855 86.5015
lradius 29.7439
lwrist -18.4842
lhand -6.22882 25.4318
lfingers 7.12502
lthumb 19.6124 54.4626
rfemur -16.324 7.86372 27.0176
rtibia 34.184
rfoot -17.1369 -12.1621
rtoes 28.6328
lfemur -14.6822 -9.64288 -18.8865
ltibia 30.7184
lfoot -16.3676 8.84909
ltoes 5.46444
1380
root 0.0255188 18.1716 -4.28803 2.2767 2.42767 -2.97636
lowerback 3.43791 -0.569503 3.24287
upperback -0.478124 -0.530311 3.71907
thorax -2.41658 -0.282721 2.03893
lowerneck -15.7707 -1.90181 -3.30487
upperneck 14.3603 -1.04925 -4.37048
head 6.99923 -1.08766 -0.993119
rclavicle 8.74653e-015 -1.35174e-014
rhumerus -31.5337 -9.37115 -78.9958
rradius 29.3219
rwrist -1.18334
rhand -22.412 13.1521
rfingers 7.12502
rthumb 4.01094 -16.7899
lclavicle 8.74653e-015 -1.35174e-014
lhumerus -34.9866 10.0585 86.5479
lradius 29.745
lwrist -18.484
lhand -6.14751 25.5447
lfingers 7.12502
lthumb 19.6905 54.5675
rfemur -16.237 7.86615 27.0729
rtibia 34.1753
rfoot -17.1424 -12.1573
rtoes 28.6949
lfemur -14.595 -9.67935 -18.8518
ltibia 30.7082
lfoot -16.4057 8.87798
ltoes 5.62848
1381
root 0.0273503 18.1731 -4.28278 2.24461 2.47673 -2.94861
lowerback 3.42638 -0.579094 3.20467
upperback -0.490365 -0.54511 3.70581
thorax -2.42227 -0.289745 2.0474
lowerneck -15.6604 -1.91265 -3.27778
upperneck 14.3545 -1.06649 -4.4283
head 6.9779 -1.09836 -1.01665
rclavicle 2.98177e-016 -9.54166e-015
rhumerus -31.6171 -9.21534 -79.1081
rradius 29.3221
rwrist -1.42647
rhand -21.5912 11.8414
rfingers 7.12502
rthumb 4.80356 -18.0841
lclavicle 2.98177e-016 -9.54166e-015
lhumerus -35.0111 9.98241 86.5874
lradius 29.723
lwrist -18.5407
lhand -6.20376 25.5629
lfingers 7.12502
lthumb 19.6365 54.5912
rfemur -16.1571 7.8601 27.0428
rtibia 34.152
rfoot -17.2799 -12.1456
rtoes 29.309
lfemur -14.5375 -9.7566 -18.8942
ltibia 30.7122
lfoot -16.4294 8.88168
ltoes 5.79583
1382
root 0.0298928 18.1733 -4.27847 2.22709 2.55172 -2.95325
lowerback 3.46248 -0.608408 3.22185
upperback -0.53374 -0.57906 3.70783
thorax -2.48709 -0.307416 2.04283
lowerneck -15.6188 -1.93648 -3.3727
upperneck 14.4308 -1.08246 -4.3896
head 6.99659 -1.1092 -0.990756
rclavicle -4.47266e-016 -5.56597e-014
rhumerus -31.7845 -9.03806 -79.1812
rradius 29.4747
rwrist -1.46686
rhand -13.4871 21.506
rfingers 7.12502
rthumb 12.6236 -8.09251
lclavicle -4.47266e-016 -5.56597e-014
lhumerus -35.0903 9.94612 86.6311
lradius 29.7191
lwrist -18.6565
lhand -6.30304 25.6608
lfingers 7.12502
lthumb 19.541 54.6988
rfemur -16.1004 7.80693 27.0569
rtibia 34.1123
rfoot -17.2812 -12.203
rtoes 29.0683
lfemur -14.537 -9.81634 -18.8978
ltibia 30.7489
lfoot -16.4705 8.87087
ltoes 5.77003
1383
root 0.032632 18.1744 -4.27374 2.24379 2.57538 -3.032
lowerback 3.45689 -0.613248 3.29303
upperback -0.566759 -0.580525 3.7282
thorax -2.51861 -0.309297 2.0245
lowerneck -15.716 -1.9518 -3.44379
upperneck 14.6051 -1.08686 -4.31364
head 7.07101 -1.11365 -0.958227
rclavicle 4.12478e-015 -3.4191e-014
rhumerus -31.905 -8.9254 -79.2296
rradius 29.6195
rwrist -1.35116
rhand -22.8328 12.7124
rfingers 7.12502
rthumb 3.60453 -17.2369
lclavicle 4.12478e-015 -3.4191e-014
lhumerus -35.1168 9.78781 86.7257
lradius 29.7414
lwrist -18.671
lhand -6.29088 25.8328
lfingers 7.12502
lthumb 19.5527 54.8696
rfemur -16.0835 7.77272 27.1391
rtibia 34.0748
rfoot -17.2067 -12.1692
rtoes 29.2224
lfemur -14.5744 -9.81899 -18.8161
ltibia 30.7996
lfoot -16.5213 8.86075
ltoes 5.65254
1384
root 0.0339953 18.1733 -4.27111 2.21273 2.52043 -3.22392
lowerback 3.48906 -0.581096 3.45215
upperback -0.554698 -0.528052 3.77791
thorax -2.52607 -0.28503 1.98424
lowerneck -15.824 -1.96236 -3.45206
upperneck 14.7076 -1.09313 -4.28852
head 7.12315 -1.11843 -0.951909
rclavicle -4.22417e-015 -1.27222e-014
rhumerus -31.9128 -8.98024 -79.2055
rradius 29.7337
rwrist -0.708002
rhand -22.2362 12.2512
rfingers 7.12502
rthumb 4.18064 -17.6875
lclavicle -4.22417e-015 -1.27222e-014
lhumerus -35.084 9.52527 86.8752
lradius 29.8167
lwrist -18.6666
lhand -6.11038 26.0055
lfingers 7.12502
lthumb 19.7262 55.0246
rfemur -16.0423 7.80822 27.3503
rtibia 34.0542
rfoot -17.1646 -12.1438
rtoes 29.5142
lfemur -14.5629 -9.74833 -18.6173
ltibia 30.8698
lfoot -16.536 8.88699
ltoes 5.5968
